<svg width="16" height="17" viewBox="0 0 16 17" fill="none" xmlns="http://www.w3.org/2000/svg">
<path fill-rule="evenodd" clip-rule="evenodd" d="M14.6051 5.71765L14.1382 4.90758C13.7433 4.22214 12.8681 3.98568 12.1817 4.37898V4.37898C11.855 4.57145 11.4651 4.62605 11.0981 4.53075C10.7311 4.43545 10.417 4.19808 10.2252 3.87097C10.1018 3.66305 10.0355 3.42623 10.033 3.18447V3.18447C10.0441 2.79686 9.89787 2.42124 9.62758 2.14319C9.35729 1.86514 8.98596 1.70834 8.59819 1.7085H7.65769C7.27779 1.70849 6.91355 1.85987 6.64556 2.12915C6.37758 2.39842 6.22794 2.76338 6.22977 3.14328V3.14328C6.21851 3.92763 5.57942 4.55755 4.79499 4.55747C4.55322 4.55496 4.3164 4.48865 4.10849 4.36525V4.36525C3.42211 3.97195 2.5469 4.20841 2.15197 4.89385L1.65082 5.71765C1.25637 6.40223 1.48961 7.27689 2.17256 7.67417V7.67417C2.61649 7.93047 2.88996 8.40413 2.88996 8.91673C2.88996 9.42934 2.61649 9.903 2.17256 10.1593V10.1593C1.49048 10.5539 1.25698 11.4264 1.65082 12.109V12.109L2.12451 12.9259C2.30955 13.2598 2.62001 13.5062 2.98721 13.6105C3.3544 13.7149 3.74804 13.6686 4.08103 13.482V13.482C4.40837 13.2909 4.79845 13.2386 5.16457 13.3366C5.53068 13.4346 5.84249 13.6747 6.03068 14.0037C6.15408 14.2116 6.22039 14.4484 6.2229 14.6902V14.6902C6.2229 15.4826 6.86528 16.125 7.65769 16.125H8.59819C9.38792 16.125 10.0292 15.4868 10.033 14.6971V14.6971C10.0311 14.316 10.1817 13.95 10.4512 13.6805C10.7207 13.411 11.0867 13.2604 11.4678 13.2623C11.7089 13.2687 11.9448 13.3348 12.1543 13.4545V13.4545C12.8388 13.8489 13.7135 13.6157 14.1108 12.9328V12.9328L14.6051 12.109C14.7964 11.7806 14.8489 11.3894 14.751 11.0222C14.653 10.655 14.4127 10.342 14.0833 10.1524V10.1524C13.7539 9.96291 13.5136 9.64987 13.4157 9.28265C13.3177 8.91542 13.3703 8.5243 13.5616 8.19591C13.686 7.97869 13.8661 7.79859 14.0833 7.67417V7.67417C14.7622 7.27711 14.9949 6.40756 14.6051 5.72451V5.72451V5.71765Z" stroke="white" stroke-width="1.5" stroke-linecap="round" stroke-linejoin="round"/>
<circle cx="8.13141" cy="8.91669" r="1.97712" stroke="white" stroke-width="1.5" stroke-linecap="round" stroke-linejoin="round"/>
</svg>
