<svg width="16" height="14" viewBox="0 0 16 14" fill="none" xmlns="http://www.w3.org/2000/svg">
<path d="M3.29754 12.5913L3.63803 11.923L3.29754 12.5913ZM1.65873 10.9525L2.32698 10.612L1.65873 10.9525ZM14.3413 10.9525L13.673 10.612L14.3413 10.9525ZM12.7025 12.5913L12.362 11.923L12.7025 12.5913ZM12.7025 1.40873L12.362 2.07698L12.7025 1.40873ZM14.3413 3.04754L15.0095 2.70704L14.3413 3.04754ZM3.29754 1.40873L3.63803 2.07698L3.29754 1.40873ZM1.65873 3.04754L0.990471 2.70704L1.65873 3.04754ZM11.75 11.5C12.1642 11.5 12.5 11.1642 12.5 10.75C12.5 10.3358 12.1642 10 11.75 10V11.5ZM8.75 10C8.33579 10 8 10.3358 8 10.75C8 11.1642 8.33579 11.5 8.75 11.5V10ZM14.7417 5.5L15.4916 5.48564L14.7417 5.5ZM1.25829 5.5L0.508423 5.48564L1.25829 5.5ZM7.25 1.75H8.75V0.25H7.25V1.75ZM8.75 12.25H7.25V13.75H8.75V12.25ZM7.25 12.25C6.18753 12.25 5.43578 12.2494 4.84808 12.2014C4.26914 12.1541 3.91576 12.0645 3.63803 11.923L2.95704 13.2595C3.48148 13.5267 4.05423 13.6415 4.72593 13.6964C5.38888 13.7506 6.21228 13.75 7.25 13.75V12.25ZM0.5 7C0.5 8.03772 0.499417 8.86112 0.553582 9.52407C0.608462 10.1958 0.723257 10.7685 0.990471 11.293L2.32698 10.612C2.18547 10.3342 2.0959 9.98086 2.0486 9.40192C2.00058 8.81422 2 8.06247 2 7H0.5ZM3.63803 11.923C3.07354 11.6354 2.6146 11.1765 2.32698 10.612L0.990471 11.293C1.4219 12.1397 2.11031 12.8281 2.95704 13.2595L3.63803 11.923ZM14 7C14 8.06247 13.9994 8.81422 13.9514 9.40192C13.9041 9.98086 13.8145 10.3342 13.673 10.612L15.0095 11.293C15.2767 10.7685 15.3915 10.1958 15.4464 9.52407C15.5006 8.86112 15.5 8.03772 15.5 7H14ZM8.75 13.75C9.78772 13.75 10.6111 13.7506 11.2741 13.6964C11.9458 13.6415 12.5185 13.5267 13.043 13.2595L12.362 11.923C12.0842 12.0645 11.7309 12.1541 11.1519 12.2014C10.5642 12.2494 9.81247 12.25 8.75 12.25V13.75ZM13.673 10.612C13.3854 11.1765 12.9265 11.6354 12.362 11.923L13.043 13.2595C13.8897 12.8281 14.5781 12.1397 15.0095 11.293L13.673 10.612ZM8.75 1.75C9.81247 1.75 10.5642 1.75058 11.1519 1.7986C11.7309 1.8459 12.0842 1.93547 12.362 2.07698L13.043 0.740471C12.5185 0.473257 11.9458 0.358462 11.2741 0.303582C10.6111 0.249417 9.78772 0.25 8.75 0.25V1.75ZM12.362 2.07698C12.9265 2.3646 13.3854 2.82354 13.673 3.38803L15.0095 2.70704C14.5781 1.86031 13.8897 1.1719 13.043 0.740471L12.362 2.07698ZM7.25 0.25C6.21228 0.25 5.38888 0.249417 4.72593 0.303582C4.05423 0.358462 3.48148 0.473257 2.95704 0.740471L3.63803 2.07698C3.91576 1.93547 4.26914 1.8459 4.84808 1.7986C5.43578 1.75058 6.18753 1.75 7.25 1.75V0.25ZM2.95704 0.740471C2.11031 1.1719 1.4219 1.86031 0.990471 2.70704L2.32698 3.38803C2.6146 2.82354 3.07354 2.3646 3.63803 2.07698L2.95704 0.740471ZM11.75 10H8.75V11.5H11.75V10ZM15.5 7C15.5 6.42951 15.5 5.92708 15.4916 5.48564L13.9919 5.51436C14 5.93846 14 6.42518 14 7H15.5ZM15.4916 5.48564C15.4695 4.33418 15.3932 3.46006 15.0095 2.70704L13.673 3.38803C13.8839 3.80191 13.9697 4.35699 13.9919 5.51436L15.4916 5.48564ZM14.7417 4.75H1.25829V6.25H14.7417V4.75ZM2 7C2 6.42518 2.00003 5.93846 2.00815 5.51436L0.508423 5.48564C0.499971 5.92708 0.5 6.42951 0.5 7H2ZM2.00815 5.51436C2.03031 4.35699 2.1161 3.80191 2.32698 3.38803L0.990471 2.70704C0.606791 3.46006 0.530468 4.33418 0.508423 5.48564L2.00815 5.51436Z" fill="white"/>
</svg>
