<svg width="18" height="18" viewBox="0 0 18 18" fill="none" xmlns="http://www.w3.org/2000/svg">
<path fill-rule="evenodd" clip-rule="evenodd" d="M5.61448 16.125H11.8753C14.1751 16.125 15.9394 15.2943 15.4383 11.9511L14.8548 7.42016C14.5458 5.75197 13.4818 5.11353 12.5481 5.11353H4.91425C3.96688 5.11353 2.96459 5.80002 2.60761 7.42016L2.02409 11.9511C1.59846 14.9167 3.31471 16.125 5.61448 16.125Z" stroke="white" stroke-width="1.5" stroke-linecap="round" stroke-linejoin="round"/>
<path d="M5.51158 4.9488C5.51158 3.15925 6.9623 1.70853 8.75185 1.70853V1.70853C9.61361 1.70487 10.4413 2.04465 11.052 2.65271C11.6626 3.26078 12.0059 4.08704 12.0059 4.9488V4.9488" stroke="white" stroke-width="1.5" stroke-linecap="round" stroke-linejoin="round"/>
<path d="M6.52728 8.3264H6.56161" stroke="white" stroke-width="1.5" stroke-linecap="round" stroke-linejoin="round"/>
<path d="M10.9003 8.3264H10.9347" stroke="white" stroke-width="1.5" stroke-linecap="round" stroke-linejoin="round"/>
</svg>
