<svg width="16" height="17" viewBox="0 0 16 17" fill="none" xmlns="http://www.w3.org/2000/svg">
<path fill-rule="evenodd" clip-rule="evenodd" d="M4.61399 16.125H10.8749C13.1746 16.125 14.9389 15.2943 14.4378 11.9511L13.8543 7.42016C13.5453 5.75197 12.4813 5.11353 11.5476 5.11353H3.91376C2.96639 5.11353 1.9641 5.80002 1.60713 7.42016L1.0236 11.9511C0.597972 14.9167 2.31422 16.125 4.61399 16.125Z" stroke="#333333" stroke-width="1.5" stroke-linecap="round" stroke-linejoin="round"/>
<path d="M4.51158 4.9488C4.51158 3.15925 5.9623 1.70853 7.75185 1.70853V1.70853C8.61361 1.70487 9.44131 2.04465 10.052 2.65271C10.6626 3.26078 11.0059 4.08704 11.0059 4.9488V4.9488" stroke="#333333" stroke-width="1.5" stroke-linecap="round" stroke-linejoin="round"/>
<path d="M5.52631 8.3264H5.56063" stroke="#333333" stroke-width="1.5" stroke-linecap="round" stroke-linejoin="round"/>
<path d="M9.89935 8.3264H9.93368" stroke="#333333" stroke-width="1.5" stroke-linecap="round" stroke-linejoin="round"/>
</svg>
