<svg width="79" height="88" viewBox="0 0 79 88" fill="none" xmlns="http://www.w3.org/2000/svg">
<g filter="url(#filter0_d_336:3673)">
<path d="M37.4503 70.4167L46.0132 58.5624H28.8873L37.4503 70.4167Z" fill="white"/>
<path d="M61.1807 36.8295C61.1807 49.9234 50.5562 60.5381 37.4503 60.5381C24.3443 60.5381 13.7198 49.9234 13.7198 36.8295C13.7198 23.7356 24.3443 13.1208 37.4503 13.1208C50.5562 13.1208 61.1807 23.7356 61.1807 36.8295Z" fill="white"/>
</g>
<ellipse cx="37.4502" cy="36.8294" rx="19.7753" ry="19.7572" fill="#FC004A"/>
<path d="M45.0501 40.7846C44.7295 41.0129 44.3616 41.2246 43.944 41.3898C43.107 41.7272 42.2303 41.8245 41.6394 41.7181C42.1194 41.476 42.61 41.1958 43.089 40.8722C43.1536 40.8277 43.6606 40.4562 43.6796 40.4465C44.0224 40.176 44.3578 39.8995 44.6588 39.6149C44.6819 39.5956 44.8497 39.4414 44.9097 39.3732C44.9602 39.3204 45.1047 39.1746 45.1282 39.1562C47.0845 37.1105 47.896 34.7562 46.9312 33.4027C46.4426 32.7066 45.5513 32.3819 44.4725 32.4066C44.0593 32.7306 43.5591 33.0306 42.9898 33.2573C42.0719 33.6287 41.153 33.7551 40.4086 33.6635C41.1421 33.3251 41.8958 32.8998 42.6322 32.3819C42.7026 32.3334 42.7723 32.2853 42.833 32.2314C46.2244 29.728 48.2167 25.9667 46.9084 24.1103C46.5258 23.5729 45.9266 23.2346 45.1886 23.0898C45.1285 23.0751 44.8079 23.037 44.7931 23.037C44.6736 23.0229 44.5383 23.0125 44.4445 23.0125C40.1763 22.7805 34.8807 25.633 31.3601 30.4238C26.4626 37.0918 26.2781 45.4162 30.9463 49.0094C33.7106 51.1416 37.556 51.1369 41.2484 49.4012C41.4778 49.2899 42.2666 48.8542 42.6103 48.6275C42.824 48.4827 43.5629 47.9551 43.7358 47.806C46.1929 45.7509 47.3492 43.068 46.3144 41.6121C46.0207 41.1965 45.588 40.9257 45.0501 40.7852V40.7846Z" fill="white"/>
<defs>
<filter id="filter0_d_336:3673" x="0.719849" y="0.12085" width="77.4608" height="87.2958" filterUnits="userSpaceOnUse" color-interpolation-filters="sRGB">
<feFlood flood-opacity="0" result="BackgroundImageFix"/>
<feColorMatrix in="SourceAlpha" type="matrix" values="0 0 0 0 0 0 0 0 0 0 0 0 0 0 0 0 0 0 127 0" result="hardAlpha"/>
<feOffset dx="2" dy="2"/>
<feGaussianBlur stdDeviation="7.5"/>
<feComposite in2="hardAlpha" operator="out"/>
<feColorMatrix type="matrix" values="0 0 0 0 0 0 0 0 0 0 0 0 0 0 0 0 0 0 0.3 0"/>
<feBlend mode="normal" in2="BackgroundImageFix" result="effect1_dropShadow_336:3673"/>
<feBlend mode="normal" in="SourceGraphic" in2="effect1_dropShadow_336:3673" result="shape"/>
</filter>
</defs>
</svg>
