<svg width="275" height="275" viewBox="0 0 275 275" fill="none" xmlns="http://www.w3.org/2000/svg">
<rect width="275" height="275" rx="137.5" fill="#ECE9E9"/>
<path d="M216.719 185.793H205.312L208.32 149.922C208.397 149.009 208.087 148.106 207.466 147.432C206.845 146.758 205.969 146.374 205.052 146.374H202.979V125.787C202.979 123.978 201.511 122.512 199.699 122.512H169.27L169.557 117.355H171.292C173.104 117.355 174.572 115.889 174.572 114.08V104.741C174.572 102.932 173.104 101.466 171.292 101.466H163.349L168.968 87.2996L193.047 78.3456C194.745 77.7145 195.608 75.828 194.976 74.1332C194.345 72.4379 192.456 71.5754 190.758 72.2069L165.311 81.6693C164.44 81.9928 163.748 82.6702 163.406 83.5326L156.292 101.466H114.014C112.202 101.466 110.734 102.932 110.734 104.741V114.08C110.734 115.889 112.202 117.355 114.014 117.355H115.766L116.462 128.621C113.788 128.033 110.998 127.715 108.125 127.715C89.9907 127.715 75.0231 140.137 73.1953 156.015H69.949C68.137 156.015 66.6687 157.481 66.6687 159.29V169.051C66.6687 170.552 67.6808 171.814 69.0607 172.201C68.8131 173.04 68.678 173.93 68.678 174.852C68.678 178.214 70.4581 181.148 73.0903 182.711C73.1646 183.746 73.3011 184.774 73.4857 185.793H58.2823C56.4702 185.793 55.002 187.259 55.002 189.068V199.725C55.002 201.534 56.4702 203 58.2823 203H216.719C218.531 203 220 201.534 220 199.725V189.068C220 187.259 218.531 185.793 216.719 185.793ZM149.863 149.923L152.877 185.793H142.724C142.93 184.769 143.074 183.751 143.153 182.716C145.788 181.153 147.572 178.217 147.572 174.852C147.572 173.93 147.432 173.042 147.181 172.203C148.564 171.819 149.58 170.556 149.58 169.051V159.29C149.58 157.481 148.112 156.015 146.3 156.015H143.044C141.758 144.85 133.981 135.393 123.167 130.765L122.339 117.356H162.987L162.699 122.513H158.485C156.673 122.513 155.205 123.979 155.205 125.788V146.375H153.133C152.215 146.375 151.339 146.758 150.718 147.433C150.097 148.107 149.786 149.01 149.863 149.923ZM200.664 152.925C197.994 156.199 190.266 159.553 179.092 159.553C167.917 159.553 160.189 156.199 157.518 152.925H200.664ZM161.766 146.374V129.063H165.507V146.374H161.766ZM179.092 166.103C187.892 166.103 195.54 164.222 200.797 161.135L198.729 185.793H159.459L157.389 161.139C162.645 164.224 170.294 166.103 179.092 166.103ZM192.678 129.063H196.419V146.374H192.678V129.063ZM182.377 129.063H186.117V146.374H182.377V129.063ZM172.067 129.063H175.808V146.374H172.067V129.063ZM117.295 108.017H168.011V110.806H117.295V108.017ZM108.125 134.265C122.604 134.265 134.602 143.758 136.438 156.015H79.8107C81.6472 143.758 93.6446 134.265 108.125 134.265ZM73.2294 165.776V162.565H143.02V165.776H73.2294ZM77.4239 177.362C76.2184 177.362 75.2387 176.236 75.2387 174.852C75.2387 173.467 76.2184 172.341 77.4239 172.341H138.826C140.031 172.341 141.01 173.467 141.01 174.852C141.01 176.236 140.031 177.362 138.826 177.362H77.4239ZM136.415 183.913C136.309 184.533 136.169 185.156 135.995 185.793H80.1772C80.0285 185.171 79.9038 184.545 79.8098 183.913H136.415ZM213.439 196.45H61.5627V192.343H213.439V196.45Z" fill="#BDBDBD"/>
<path d="M108.124 144.004C107.262 144.004 106.418 143.655 105.806 143.043C105.193 142.436 104.844 141.589 104.844 140.729C104.844 139.868 105.193 139.021 105.806 138.414C106.418 137.803 107.262 137.453 108.124 137.453C108.99 137.453 109.833 137.803 110.446 138.414C111.055 139.021 111.404 139.868 111.404 140.729C111.404 141.589 111.054 142.436 110.446 143.043C109.833 143.655 108.99 144.004 108.124 144.004Z" fill="#BDBDBD"/>
<path d="M95.0421 149.064C94.18 149.064 93.3363 148.715 92.7235 148.104C92.1112 147.497 91.7617 146.654 91.7617 145.789C91.7617 144.929 92.1112 144.086 92.7235 143.475C93.3359 142.863 94.18 142.514 95.0421 142.514C95.9077 142.514 96.7522 142.863 97.3641 143.475C97.9725 144.082 98.3224 144.929 98.3224 145.789C98.3224 146.653 97.9721 147.497 97.3641 148.104C96.7522 148.715 95.9072 149.064 95.0421 149.064Z" fill="#BDBDBD"/>
<path d="M121.215 149.063C120.349 149.063 119.505 148.714 118.892 148.103C118.284 147.496 117.935 146.653 117.935 145.788C117.935 144.928 118.284 144.085 118.892 143.474C119.504 142.862 120.348 142.513 121.215 142.513C122.076 142.513 122.92 142.862 123.533 143.474C124.141 144.085 124.495 144.928 124.495 145.788C124.495 146.652 124.141 147.496 123.533 148.103C122.92 148.714 122.076 149.063 121.215 149.063Z" fill="#BDBDBD"/>
</svg>
