<svg width="26" height="26" viewBox="0 0 26 26" fill="none" xmlns="http://www.w3.org/2000/svg">
<ellipse cx="13.005" cy="7.55225" rx="5.46696" ry="5.3855" stroke="#333333" stroke-width="2" stroke-linecap="round" stroke-linejoin="round"/>
<path fill-rule="evenodd" clip-rule="evenodd" d="M4.33351 20.428C4.33205 20.0494 4.418 19.6755 4.58487 19.3344C5.10852 18.3027 6.58523 17.7559 7.81058 17.5083C8.69431 17.3225 9.59024 17.1984 10.4917 17.1369C12.1607 16.9925 13.8393 16.9925 15.5083 17.1369C16.4097 17.1991 17.3056 17.3232 18.1894 17.5083C19.4148 17.7559 20.8915 18.2511 21.4151 19.3344C21.7507 20.0296 21.7507 20.8367 21.4151 21.5319C20.8915 22.6152 19.4148 23.1105 18.1894 23.3477C17.3067 23.5412 16.4105 23.6688 15.5083 23.7295C14.1499 23.8429 12.7851 23.8636 11.4238 23.7914C11.1096 23.7914 10.8059 23.7914 10.4917 23.7295C9.5929 23.6696 8.70007 23.542 7.82106 23.3477C6.58523 23.1105 5.119 22.6152 4.58487 21.5319C4.41885 21.1869 4.33298 20.8098 4.33351 20.428Z" stroke="#333333" stroke-width="2" stroke-linecap="round" stroke-linejoin="round"/>
</svg>
